<?xml version="1.0" encoding="UTF-8" standalone="no"?>
<!-- Created with Inkscape (http://www.inkscape.org/) -->

<svg
   width="80mm"
   height="112mm"
   viewBox="0 0 80 112"
   version="1.1"
   id="svg1"
   xml:space="preserve"
   xmlns="http://www.w3.org/2000/svg"
   xmlns:svg="http://www.w3.org/2000/svg"><defs
     id="defs1" /><g
     id="layer2"><path
       d="M 69.349589,3.6326387 54.908093,3.6843151 35.765076,36.862135 16.575033,3.636256 2.2627282,3.6858654 28.58877,49.334242 10.298413,80.964352 24.648958,80.936447 Z M 4.5757652,4.9664071 15.567859,4.9839771 35.595577,40.005612 55.857906,5.0346201 66.845349,5.0454701 23.846423,79.615079 H 12.776298 L 30.288407,49.386435 Z"
       style="display:inline;stroke-width:0.264583"
       id="path29" /><path
       d="M 4.5757652,4.9664071 30.288407,49.386435 12.776298,79.615081 H 23.846423 L 66.845349,5.0454721 55.857906,5.0346201 35.595577,40.005612 15.567859,4.9839771 Z"
       style="display:inline;fill:#ffffff;stroke-width:0.264583"
       id="path28" /><path
       d="m 69.163037,31.889829 -14.350028,0.02739 -44.700631,77.304331 14.441496,-0.0522 19.143017,-33.177302 19.190043,33.225882 14.311788,-0.0496 L 50.872681,63.519422 Z M 55.615544,33.2391 H 66.685669 L 49.17356,63.467229 74.885685,107.88726 63.894108,107.86969 43.86639,72.848569 23.604061,107.81956 12.616618,107.8082 Z"
       style="display:inline;stroke-width:0.264583"
       id="path27" /><path
       d="m 55.615544,33.2391 -42.998926,74.5691 10.987443,0.0114 20.262329,-34.970991 20.027718,35.021121 10.991577,0.0176 L 49.17356,63.467229 66.685669,33.2391 Z"
       style="display:inline;fill:#ffffff;stroke-width:0.264583"
       id="path26" /></g></svg>
